<?xml version="1.0" encoding="UTF-8" standalone="no"?><svg xmlns="http://www.w3.org/2000/svg" xmlns:xlink="http://www.w3.org/1999/xlink" contentScriptType="application/ecmascript" contentStyleType="text/css" height="1204px" preserveAspectRatio="none" style="width:1038px;height:1204px;" version="1.1" viewBox="0 0 1038 1204" width="1038px" zoomAndPan="magnify"><defs><filter height="300%" id="fz6hetw" width="300%" x="-1" y="-1"><feGaussianBlur result="blurOut" stdDeviation="2.0"/><feColorMatrix in="blurOut" result="blurOut2" type="matrix" values="0 0 0 0 0 0 0 0 0 0 0 0 0 0 0 0 0 0 .4 0"/><feOffset dx="4.0" dy="4.0" in="blurOut2" result="blurOut3"/><feBlend in="SourceGraphic" in2="blurOut3" mode="normal"/></filter></defs><g><text fill="#000000" font-family="sans-serif" font-size="14" font-weight="bold" lengthAdjust="spacingAndGlyphs" textLength="156" x="440.25" y="22.9951">Architecture of Igor</text><rect fill="#FFFFFF" filter="url(#fz6hetw)" height="292.4609" style="stroke: #A80036; stroke-width: 1.0;" width="10" x="39" y="227.1563"/><rect fill="#FFFFFF" filter="url(#fz6hetw)" height="44.1328" style="stroke: #A80036; stroke-width: 1.0;" width="10" x="189" y="227.1563"/><rect fill="#FFFFFF" filter="url(#fz6hetw)" height="189.9297" style="stroke: #A80036; stroke-width: 1.0;" width="10" x="251" y="300.5547"/><rect fill="#FFFFFF" filter="url(#fz6hetw)" height="87.3984" style="stroke: #A80036; stroke-width: 1.0;" width="10" x="372" y="403.0859"/><rect fill="#FFFFFF" filter="url(#fz6hetw)" height="145.7969" style="stroke: #A80036; stroke-width: 1.0;" width="10" x="491" y="373.8203"/><rect fill="#FFFFFF" filter="url(#fz6hetw)" height="29.2656" style="stroke: #A80036; stroke-width: 1.0;" width="10" x="491" y="690.1484"/><rect fill="#FFFFFF" filter="url(#fz6hetw)" height="30" style="stroke: #A80036; stroke-width: 1.0;" width="10" x="491" y="949.4766"/><rect fill="#FFFFFF" filter="url(#fz6hetw)" height="30" style="stroke: #A80036; stroke-width: 1.0;" width="10" x="599.5" y="616.0156"/><rect fill="#FFFFFF" filter="url(#fz6hetw)" height="467.3906" style="stroke: #A80036; stroke-width: 1.0;" width="10" x="696" y="616.0156"/><rect fill="#FFFFFF" filter="url(#fz6hetw)" height="29.2656" style="stroke: #A80036; stroke-width: 1.0;" width="10" x="851" y="763.5469"/><rect fill="#FFFFFF" filter="url(#fz6hetw)" height="29.3984" style="stroke: #A80036; stroke-width: 1.0;" width="10" x="851" y="1038.875"/><rect fill="#FFFFFF" filter="url(#fz6hetw)" height="29.2656" style="stroke: #A80036; stroke-width: 1.0;" width="10" x="956.5" y="836.9453"/><rect fill="#FFFFFF" filter="url(#fz6hetw)" height="505.5234" style="stroke: #000000; stroke-width: 2.0;" width="595.5" x="428" y="577.8828"/><rect fill="#FFFFFF" filter="url(#fz6hetw)" height="195.0625" style="stroke: #000000; stroke-width: 2.0;" width="471.5" x="438" y="881.3438"/><rect fill="#DDDDDD" height="1168.7031" style="stroke: #A80036; stroke-width: 1.0;" width="413" x="4" y="34.2969"/><text fill="#000000" font-family="sans-serif" font-size="13" font-weight="bold" lengthAdjust="spacingAndGlyphs" textLength="177" x="122" y="46.3638">Website communication</text><rect fill="#DDDDDD" height="1168.7031" style="stroke: #A80036; stroke-width: 1.0;" width="104" x="444" y="34.2969"/><text fill="#000000" font-family="sans-serif" font-size="13" font-weight="bold" lengthAdjust="spacingAndGlyphs" textLength="52" x="470" y="46.3638">Shared</text><rect fill="#DDDDDD" height="1168.7031" style="stroke: #A80036; stroke-width: 1.0;" width="191" x="550" y="34.2969"/><text fill="#000000" font-family="sans-serif" font-size="13" font-weight="bold" lengthAdjust="spacingAndGlyphs" textLength="125" x="583" y="46.3638">Back end in AWS</text><rect fill="#DDDDDD" height="1168.7031" style="stroke: #A80036; stroke-width: 1.0;" width="209" x="808.5" y="34.2969"/><text fill="#000000" font-family="sans-serif" font-size="13" font-weight="bold" lengthAdjust="spacingAndGlyphs" textLength="70" x="878" y="46.3638">Flowdock</text><text fill="#000000" font-family="sans-serif" font-size="13" font-weight="bold" lengthAdjust="spacingAndGlyphs" textLength="24" x="901" y="61.4966">API</text><line style="stroke: #A80036; stroke-width: 1.0; stroke-dasharray: 5.0,5.0;" x1="44" x2="44" y1="153.0234" y2="1100.4063"/><line style="stroke: #A80036; stroke-width: 1.0; stroke-dasharray: 5.0,5.0;" x1="194" x2="194" y1="153.0234" y2="1100.4063"/><line style="stroke: #A80036; stroke-width: 1.0; stroke-dasharray: 5.0,5.0;" x1="256" x2="256" y1="153.0234" y2="1100.4063"/><line style="stroke: #A80036; stroke-width: 1.0; stroke-dasharray: 5.0,5.0;" x1="377" x2="377" y1="153.0234" y2="1100.4063"/><line style="stroke: #A80036; stroke-width: 1.0; stroke-dasharray: 5.0,5.0;" x1="496" x2="496" y1="153.0234" y2="1100.4063"/><line style="stroke: #A80036; stroke-width: 1.0; stroke-dasharray: 5.0,5.0;" x1="604" x2="604" y1="153.0234" y2="1100.4063"/><line style="stroke: #A80036; stroke-width: 1.0; stroke-dasharray: 5.0,5.0;" x1="701" x2="701" y1="153.0234" y2="1100.4063"/><line style="stroke: #A80036; stroke-width: 1.0; stroke-dasharray: 5.0,5.0;" x1="855.5" x2="855.5" y1="153.0234" y2="1100.4063"/><line style="stroke: #A80036; stroke-width: 1.0; stroke-dasharray: 5.0,5.0;" x1="961.5" x2="961.5" y1="153.0234" y2="1100.4063"/><text fill="#000000" font-family="sans-serif" font-size="14" lengthAdjust="spacingAndGlyphs" textLength="32" x="25" y="133.4248">User</text><text fill="#000000" font-family="sans-serif" font-size="14" lengthAdjust="spacingAndGlyphs" textLength="66" x="8" y="149.7217">(browser)</text><ellipse cx="44" cy="63.4297" fill="#FEFECE" filter="url(#fz6hetw)" rx="8" ry="8" style="stroke: #A80036; stroke-width: 2.0;"/><path d="M44,71.4297 L44,98.4297 M31,79.4297 L57,79.4297 M44,98.4297 L31,113.4297 M44,98.4297 L57,113.4297 " fill="#FEFECE" filter="url(#fz6hetw)" style="stroke: #A80036; stroke-width: 2.0;"/><text fill="#000000" font-family="sans-serif" font-size="14" lengthAdjust="spacingAndGlyphs" textLength="32" x="25" y="1112.4014">User</text><text fill="#000000" font-family="sans-serif" font-size="14" lengthAdjust="spacingAndGlyphs" textLength="66" x="8" y="1128.6982">(browser)</text><ellipse cx="44" cy="1142" fill="#FEFECE" filter="url(#fz6hetw)" rx="8" ry="8" style="stroke: #A80036; stroke-width: 2.0;"/><path d="M44,1150 L44,1177 M31,1158 L57,1158 M44,1177 L31,1192 M44,1177 L57,1192 " fill="#FEFECE" filter="url(#fz6hetw)" style="stroke: #A80036; stroke-width: 2.0;"/><rect fill="#FEFECE" filter="url(#fz6hetw)" height="30.2969" style="stroke: #A80036; stroke-width: 1.5;" width="32" x="176" y="117.7266"/><text fill="#000000" font-family="sans-serif" font-size="14" lengthAdjust="spacingAndGlyphs" textLength="18" x="183" y="137.7217">S3</text><rect fill="#FEFECE" filter="url(#fz6hetw)" height="30.2969" style="stroke: #A80036; stroke-width: 1.5;" width="32" x="176" y="1099.4063"/><text fill="#000000" font-family="sans-serif" font-size="14" lengthAdjust="spacingAndGlyphs" textLength="18" x="183" y="1119.4014">S3</text><rect fill="#FEFECE" filter="url(#fz6hetw)" height="46.5938" style="stroke: #A80036; stroke-width: 1.5;" width="64" x="222" y="101.4297"/><text fill="#000000" font-family="sans-serif" font-size="14" lengthAdjust="spacingAndGlyphs" textLength="50" x="229" y="121.4248">Google</text><text fill="#000000" font-family="sans-serif" font-size="14" lengthAdjust="spacingAndGlyphs" textLength="43" x="232.5" y="137.7217">OAuth</text><rect fill="#FEFECE" filter="url(#fz6hetw)" height="46.5938" style="stroke: #A80036; stroke-width: 1.5;" width="64" x="222" y="1099.4063"/><text fill="#000000" font-family="sans-serif" font-size="14" lengthAdjust="spacingAndGlyphs" textLength="50" x="229" y="1119.4014">Google</text><text fill="#000000" font-family="sans-serif" font-size="14" lengthAdjust="spacingAndGlyphs" textLength="43" x="232.5" y="1135.6982">OAuth</text><rect fill="#FEFECE" filter="url(#fz6hetw)" height="30.2969" style="stroke: #A80036; stroke-width: 1.5;" width="68" x="341" y="117.7266"/><text fill="#000000" font-family="sans-serif" font-size="14" lengthAdjust="spacingAndGlyphs" textLength="54" x="348" y="137.7217">Cognito</text><rect fill="#FEFECE" filter="url(#fz6hetw)" height="30.2969" style="stroke: #A80036; stroke-width: 1.5;" width="68" x="341" y="1099.4063"/><text fill="#000000" font-family="sans-serif" font-size="14" lengthAdjust="spacingAndGlyphs" textLength="54" x="348" y="1119.4014">Cognito</text><rect fill="#FEFECE" filter="url(#fz6hetw)" height="30.2969" style="stroke: #A80036; stroke-width: 1.5;" width="92" x="448" y="117.7266"/><text fill="#000000" font-family="sans-serif" font-size="14" lengthAdjust="spacingAndGlyphs" textLength="78" x="455" y="137.7217">DynamoDB</text><rect fill="#FEFECE" filter="url(#fz6hetw)" height="30.2969" style="stroke: #A80036; stroke-width: 1.5;" width="92" x="448" y="1099.4063"/><text fill="#000000" font-family="sans-serif" font-size="14" lengthAdjust="spacingAndGlyphs" textLength="78" x="455" y="1119.4014">DynamoDB</text><rect fill="#FEFECE" filter="url(#fz6hetw)" height="46.5938" style="stroke: #A80036; stroke-width: 1.5;" width="97" x="554" y="101.4297"/><text fill="#000000" font-family="sans-serif" font-size="14" lengthAdjust="spacingAndGlyphs" textLength="83" x="561" y="121.4248">CloudWatch</text><text fill="#000000" font-family="sans-serif" font-size="14" lengthAdjust="spacingAndGlyphs" textLength="31" x="587" y="137.7217">Rule</text><rect fill="#FEFECE" filter="url(#fz6hetw)" height="46.5938" style="stroke: #A80036; stroke-width: 1.5;" width="97" x="554" y="1099.4063"/><text fill="#000000" font-family="sans-serif" font-size="14" lengthAdjust="spacingAndGlyphs" textLength="83" x="561" y="1119.4014">CloudWatch</text><text fill="#000000" font-family="sans-serif" font-size="14" lengthAdjust="spacingAndGlyphs" textLength="31" x="587" y="1135.6982">Rule</text><rect fill="#FEFECE" filter="url(#fz6hetw)" height="46.5938" style="stroke: #A80036; stroke-width: 1.5;" width="68" x="665" y="101.4297"/><text fill="#000000" font-family="sans-serif" font-size="14" lengthAdjust="spacingAndGlyphs" textLength="26" x="686" y="121.4248">Igor</text><text fill="#000000" font-family="sans-serif" font-size="14" lengthAdjust="spacingAndGlyphs" textLength="54" x="672" y="137.7217">Lambda</text><rect fill="#FEFECE" filter="url(#fz6hetw)" height="46.5938" style="stroke: #A80036; stroke-width: 1.5;" width="68" x="665" y="1099.4063"/><text fill="#000000" font-family="sans-serif" font-size="14" lengthAdjust="spacingAndGlyphs" textLength="26" x="686" y="1119.4014">Igor</text><text fill="#000000" font-family="sans-serif" font-size="14" lengthAdjust="spacingAndGlyphs" textLength="54" x="672" y="1135.6982">Lambda</text><rect fill="#FEFECE" filter="url(#fz6hetw)" height="46.5938" style="stroke: #A80036; stroke-width: 1.5;" width="83" x="812.5" y="101.4297"/><text fill="#000000" font-family="sans-serif" font-size="14" lengthAdjust="spacingAndGlyphs" textLength="65" x="821.5" y="121.4248">Flowdock</text><text fill="#000000" font-family="sans-serif" font-size="14" lengthAdjust="spacingAndGlyphs" textLength="69" x="819.5" y="137.7217">Official API</text><rect fill="#FEFECE" filter="url(#fz6hetw)" height="46.5938" style="stroke: #A80036; stroke-width: 1.5;" width="83" x="812.5" y="1099.4063"/><text fill="#000000" font-family="sans-serif" font-size="14" lengthAdjust="spacingAndGlyphs" textLength="65" x="821.5" y="1119.4014">Flowdock</text><text fill="#000000" font-family="sans-serif" font-size="14" lengthAdjust="spacingAndGlyphs" textLength="69" x="819.5" y="1135.6982">Official API</text><rect fill="#FEFECE" filter="url(#fz6hetw)" height="46.5938" style="stroke: #A80036; stroke-width: 1.5;" width="100" x="909.5" y="101.4297"/><text fill="#000000" font-family="sans-serif" font-size="14" lengthAdjust="spacingAndGlyphs" textLength="65" x="927" y="121.4248">Flowdock</text><text fill="#000000" font-family="sans-serif" font-size="14" lengthAdjust="spacingAndGlyphs" textLength="86" x="916.5" y="137.7217">Unofficial API</text><rect fill="#FEFECE" filter="url(#fz6hetw)" height="46.5938" style="stroke: #A80036; stroke-width: 1.5;" width="100" x="909.5" y="1099.4063"/><text fill="#000000" font-family="sans-serif" font-size="14" lengthAdjust="spacingAndGlyphs" textLength="65" x="927" y="1119.4014">Flowdock</text><text fill="#000000" font-family="sans-serif" font-size="14" lengthAdjust="spacingAndGlyphs" textLength="86" x="916.5" y="1135.6982">Unofficial API</text><rect fill="#FFFFFF" filter="url(#fz6hetw)" height="292.4609" style="stroke: #A80036; stroke-width: 1.0;" width="10" x="39" y="227.1563"/><rect fill="#FFFFFF" filter="url(#fz6hetw)" height="44.1328" style="stroke: #A80036; stroke-width: 1.0;" width="10" x="189" y="227.1563"/><rect fill="#FFFFFF" filter="url(#fz6hetw)" height="189.9297" style="stroke: #A80036; stroke-width: 1.0;" width="10" x="251" y="300.5547"/><rect fill="#FFFFFF" filter="url(#fz6hetw)" height="87.3984" style="stroke: #A80036; stroke-width: 1.0;" width="10" x="372" y="403.0859"/><rect fill="#FFFFFF" filter="url(#fz6hetw)" height="145.7969" style="stroke: #A80036; stroke-width: 1.0;" width="10" x="491" y="373.8203"/><rect fill="#FFFFFF" filter="url(#fz6hetw)" height="29.2656" style="stroke: #A80036; stroke-width: 1.0;" width="10" x="491" y="690.1484"/><rect fill="#FFFFFF" filter="url(#fz6hetw)" height="30" style="stroke: #A80036; stroke-width: 1.0;" width="10" x="491" y="949.4766"/><rect fill="#FFFFFF" filter="url(#fz6hetw)" height="30" style="stroke: #A80036; stroke-width: 1.0;" width="10" x="599.5" y="616.0156"/><rect fill="#FFFFFF" filter="url(#fz6hetw)" height="467.3906" style="stroke: #A80036; stroke-width: 1.0;" width="10" x="696" y="616.0156"/><rect fill="#FFFFFF" filter="url(#fz6hetw)" height="29.2656" style="stroke: #A80036; stroke-width: 1.0;" width="10" x="851" y="763.5469"/><rect fill="#FFFFFF" filter="url(#fz6hetw)" height="29.3984" style="stroke: #A80036; stroke-width: 1.0;" width="10" x="851" y="1038.875"/><rect fill="#FFFFFF" filter="url(#fz6hetw)" height="29.2656" style="stroke: #A80036; stroke-width: 1.0;" width="10" x="956.5" y="836.9453"/><rect fill="#EEEEEE" filter="url(#fz6hetw)" height="3" style="stroke: #EEEEEE; stroke-width: 1.0;" width="1030.5" x="3" y="183.5898"/><line style="stroke: #000000; stroke-width: 1.0;" x1="3" x2="1033.5" y1="183.5898" y2="183.5898"/><line style="stroke: #000000; stroke-width: 1.0;" x1="3" x2="1033.5" y1="186.5898" y2="186.5898"/><rect fill="#EEEEEE" filter="url(#fz6hetw)" height="23.1328" style="stroke: #000000; stroke-width: 2.0;" width="119" x="458.75" y="173.0234"/><text fill="#000000" font-family="sans-serif" font-size="13" font-weight="bold" lengthAdjust="spacingAndGlyphs" textLength="100" x="464.75" y="189.0903">Configuration</text><line style="stroke: #A80036; stroke-width: 2.0;" x1="187" x2="177" y1="227.1563" y2="223.1563"/><line style="stroke: #A80036; stroke-width: 2.0;" x1="187" x2="177" y1="227.1563" y2="231.1563"/><line style="stroke: #A80036; stroke-width: 2.0;" x1="49" x2="188" y1="227.1563" y2="227.1563"/><text fill="#000000" font-family="sans-serif" font-size="13" font-weight="bold" lengthAdjust="spacingAndGlyphs" textLength="9" x="56" y="222.2231">1</text><text fill="#000000" font-family="sans-serif" font-size="13" lengthAdjust="spacingAndGlyphs" textLength="113" x="69" y="222.2231">download content</text><polygon fill="#A80036" points="60,267.2891,50,271.2891,60,275.2891,56,271.2891" style="stroke: #A80036; stroke-width: 1.0;"/><line style="stroke: #A80036; stroke-width: 2.0; stroke-dasharray: 2.0,2.0;" x1="54" x2="193" y1="271.2891" y2="271.2891"/><text fill="#000000" font-family="sans-serif" font-size="13" font-weight="bold" lengthAdjust="spacingAndGlyphs" textLength="9" x="66" y="258.9224">2</text><text fill="#000000" font-family="sans-serif" font-size="13" lengthAdjust="spacingAndGlyphs" textLength="83" x="79" y="251.356">site contents</text><text fill="#000000" font-family="sans-serif" font-size="13" lengthAdjust="spacingAndGlyphs" textLength="82" x="79" y="266.4888">HTML,CSS,JS</text><line style="stroke: #A80036; stroke-width: 2.0;" x1="249" x2="239" y1="300.5547" y2="296.5547"/><line style="stroke: #A80036; stroke-width: 2.0;" x1="249" x2="239" y1="300.5547" y2="304.5547"/><line style="stroke: #A80036; stroke-width: 2.0;" x1="49" x2="250" y1="300.5547" y2="300.5547"/><text fill="#000000" font-family="sans-serif" font-size="13" font-weight="bold" lengthAdjust="spacingAndGlyphs" textLength="9" x="56" y="295.6216">3</text><text fill="#000000" font-family="sans-serif" font-size="13" lengthAdjust="spacingAndGlyphs" textLength="81" x="69" y="295.6216">authenticate</text><polygon fill="#A80036" points="60,325.6875,50,329.6875,60,333.6875,56,329.6875" style="stroke: #A80036; stroke-width: 1.0;"/><line style="stroke: #A80036; stroke-width: 2.0; stroke-dasharray: 2.0,2.0;" x1="54" x2="250" y1="329.6875" y2="329.6875"/><text fill="#000000" font-family="sans-serif" font-size="13" font-weight="bold" lengthAdjust="spacingAndGlyphs" textLength="9" x="66" y="324.7544">4</text><text fill="#000000" font-family="sans-serif" font-size="13" lengthAdjust="spacingAndGlyphs" textLength="69" x="79" y="324.7544">auth token</text><line style="stroke: #A80036; stroke-width: 2.0;" x1="489" x2="479" y1="373.8203" y2="369.8203"/><line style="stroke: #A80036; stroke-width: 2.0;" x1="489" x2="479" y1="373.8203" y2="377.8203"/><line style="stroke: #A80036; stroke-width: 2.0;" x1="49" x2="490" y1="373.8203" y2="373.8203"/><text fill="#000000" font-family="sans-serif" font-size="13" font-weight="bold" lengthAdjust="spacingAndGlyphs" textLength="9" x="56" y="361.4536">5</text><text fill="#000000" font-family="sans-serif" font-size="13" lengthAdjust="spacingAndGlyphs" textLength="131" x="69" y="353.8872">do any DB operation</text><text fill="#000000" font-family="sans-serif" font-size="13" lengthAdjust="spacingAndGlyphs" textLength="76" x="69" y="369.02">for this user</text><line style="stroke: #A80036; stroke-width: 2.0;" x1="382" x2="392" y1="403.0859" y2="399.0859"/><line style="stroke: #A80036; stroke-width: 2.0;" x1="382" x2="392" y1="403.0859" y2="407.0859"/><line style="stroke: #A80036; stroke-width: 2.0; stroke-dasharray: 2.0,2.0;" x1="382" x2="490" y1="403.0859" y2="403.0859"/><text fill="#000000" font-family="sans-serif" font-size="13" font-weight="bold" lengthAdjust="spacingAndGlyphs" textLength="9" x="399" y="398.1528">6</text><text fill="#000000" font-family="sans-serif" font-size="13" lengthAdjust="spacingAndGlyphs" textLength="77" x="412" y="398.1528">utilize token</text><line style="stroke: #A80036; stroke-width: 2.0;" x1="261" x2="271" y1="432.2188" y2="428.2188"/><line style="stroke: #A80036; stroke-width: 2.0;" x1="261" x2="271" y1="432.2188" y2="436.2188"/><line style="stroke: #A80036; stroke-width: 2.0;" x1="261" x2="371" y1="432.2188" y2="432.2188"/><text fill="#000000" font-family="sans-serif" font-size="13" font-weight="bold" lengthAdjust="spacingAndGlyphs" textLength="9" x="278" y="427.2856">7</text><text fill="#000000" font-family="sans-serif" font-size="13" lengthAdjust="spacingAndGlyphs" textLength="74" x="291" y="427.2856">verify token</text><polygon fill="#A80036" points="360,457.3516,370,461.3516,360,465.3516,364,461.3516" style="stroke: #A80036; stroke-width: 1.0;"/><line style="stroke: #A80036; stroke-width: 2.0; stroke-dasharray: 2.0,2.0;" x1="261" x2="366" y1="461.3516" y2="461.3516"/><text fill="#000000" font-family="sans-serif" font-size="13" font-weight="bold" lengthAdjust="spacingAndGlyphs" textLength="9" x="268" y="456.4185">8</text><text fill="#000000" font-family="sans-serif" font-size="13" lengthAdjust="spacingAndGlyphs" textLength="58" x="281" y="456.4185">token OK</text><polygon fill="#A80036" points="479,486.4844,489,490.4844,479,494.4844,483,490.4844" style="stroke: #A80036; stroke-width: 1.0;"/><line style="stroke: #A80036; stroke-width: 2.0; stroke-dasharray: 2.0,2.0;" x1="377" x2="485" y1="490.4844" y2="490.4844"/><text fill="#000000" font-family="sans-serif" font-size="13" font-weight="bold" lengthAdjust="spacingAndGlyphs" textLength="9" x="384" y="485.5513">9</text><text fill="#000000" font-family="sans-serif" font-size="13" lengthAdjust="spacingAndGlyphs" textLength="0" x="401" y="485.5513"/><polygon fill="#A80036" points="55,515.6172,45,519.6172,55,523.6172,51,519.6172" style="stroke: #A80036; stroke-width: 1.0;"/><line style="stroke: #A80036; stroke-width: 2.0; stroke-dasharray: 2.0,2.0;" x1="49" x2="495" y1="519.6172" y2="519.6172"/><text fill="#000000" font-family="sans-serif" font-size="13" font-weight="bold" lengthAdjust="spacingAndGlyphs" textLength="18" x="61" y="514.6841">10</text><text fill="#000000" font-family="sans-serif" font-size="13" lengthAdjust="spacingAndGlyphs" textLength="140" x="83" y="514.6841">data saved or fetched</text><rect fill="#EEEEEE" filter="url(#fz6hetw)" height="3" style="stroke: #EEEEEE; stroke-width: 1.0;" width="1030.5" x="3" y="548.3164"/><line style="stroke: #000000; stroke-width: 1.0;" x1="3" x2="1033.5" y1="548.3164" y2="548.3164"/><line style="stroke: #000000; stroke-width: 1.0;" x1="3" x2="1033.5" y1="551.3164" y2="551.3164"/><rect fill="#EEEEEE" filter="url(#fz6hetw)" height="23.1328" style="stroke: #000000; stroke-width: 2.0;" width="194" x="421.25" y="537.75"/><text fill="#000000" font-family="sans-serif" font-size="13" font-weight="bold" lengthAdjust="spacingAndGlyphs" textLength="175" x="427.25" y="553.8169">Background processing</text><rect fill="none" height="505.5234" style="stroke: #000000; stroke-width: 2.0;" width="595.5" x="428" y="577.8828"/><polygon fill="#EEEEEE" points="428,577.8828,505,577.8828,505,584.8828,495,594.8828,428,594.8828,428,577.8828" style="stroke: #000000; stroke-width: 2.0;"/><text fill="#000000" font-family="sans-serif" font-size="13" font-weight="bold" lengthAdjust="spacingAndGlyphs" textLength="32" x="443" y="590.9497">loop</text><text fill="#000000" font-family="sans-serif" font-size="11" font-weight="bold" lengthAdjust="spacingAndGlyphs" textLength="118" x="520" y="590.0933">[each 60 seconds]</text><polygon fill="#A80036" points="684,612.0156,694,616.0156,684,620.0156,688,616.0156" style="stroke: #A80036; stroke-width: 1.0;"/><line style="stroke: #A80036; stroke-width: 2.0; stroke-dasharray: 2.0,2.0;" x1="609.5" x2="690" y1="616.0156" y2="616.0156"/><text fill="#000000" font-family="sans-serif" font-size="13" font-weight="bold" lengthAdjust="spacingAndGlyphs" textLength="18" x="616.5" y="611.0825">11</text><text fill="#000000" font-family="sans-serif" font-size="13" lengthAdjust="spacingAndGlyphs" textLength="50" x="638.5" y="611.0825">process</text><line style="stroke: #A80036; stroke-width: 2.0;" x1="501" x2="511" y1="690.1484" y2="686.1484"/><line style="stroke: #A80036; stroke-width: 2.0;" x1="501" x2="511" y1="690.1484" y2="694.1484"/><line style="stroke: #A80036; stroke-width: 2.0;" x1="501" x2="695" y1="690.1484" y2="690.1484"/><text fill="#000000" font-family="sans-serif" font-size="13" font-weight="bold" lengthAdjust="spacingAndGlyphs" textLength="18" x="518" y="677.7817">12</text><text fill="#000000" font-family="sans-serif" font-size="13" lengthAdjust="spacingAndGlyphs" textLength="94" x="540" y="670.2153">fetch all known</text><text fill="#000000" font-family="sans-serif" font-size="13" lengthAdjust="spacingAndGlyphs" textLength="90" x="540" y="685.3481">configurations</text><polygon fill="#A80036" points="684,715.4141,694,719.4141,684,723.4141,688,719.4141" style="stroke: #A80036; stroke-width: 1.0;"/><line style="stroke: #A80036; stroke-width: 2.0; stroke-dasharray: 2.0,2.0;" x1="496" x2="690" y1="719.4141" y2="719.4141"/><text fill="#000000" font-family="sans-serif" font-size="13" font-weight="bold" lengthAdjust="spacingAndGlyphs" textLength="18" x="503" y="714.481">13</text><text fill="#000000" font-family="sans-serif" font-size="13" lengthAdjust="spacingAndGlyphs" textLength="45" x="525" y="714.481">configs</text><line style="stroke: #A80036; stroke-width: 2.0;" x1="849" x2="839" y1="763.5469" y2="759.5469"/><line style="stroke: #A80036; stroke-width: 2.0;" x1="849" x2="839" y1="763.5469" y2="767.5469"/><line style="stroke: #A80036; stroke-width: 2.0;" x1="706" x2="850" y1="763.5469" y2="763.5469"/><text fill="#000000" font-family="sans-serif" font-size="13" font-weight="bold" lengthAdjust="spacingAndGlyphs" textLength="18" x="713" y="751.1802">14</text><text fill="#000000" font-family="sans-serif" font-size="13" lengthAdjust="spacingAndGlyphs" textLength="61" x="735" y="743.6138">get latest</text><text fill="#000000" font-family="sans-serif" font-size="13" lengthAdjust="spacingAndGlyphs" textLength="60" x="735" y="758.7466">mentions</text><polygon fill="#A80036" points="717,788.8125,707,792.8125,717,796.8125,713,792.8125" style="stroke: #A80036; stroke-width: 1.0;"/><line style="stroke: #A80036; stroke-width: 2.0; stroke-dasharray: 2.0,2.0;" x1="711" x2="855" y1="792.8125" y2="792.8125"/><text fill="#000000" font-family="sans-serif" font-size="13" font-weight="bold" lengthAdjust="spacingAndGlyphs" textLength="18" x="723" y="787.8794">15</text><text fill="#000000" font-family="sans-serif" font-size="13" lengthAdjust="spacingAndGlyphs" textLength="60" x="745" y="787.8794">mentions</text><line style="stroke: #A80036; stroke-width: 2.0;" x1="954.5" x2="944.5" y1="836.9453" y2="832.9453"/><line style="stroke: #A80036; stroke-width: 2.0;" x1="954.5" x2="944.5" y1="836.9453" y2="840.9453"/><line style="stroke: #A80036; stroke-width: 2.0;" x1="706" x2="955.5" y1="836.9453" y2="836.9453"/><text fill="#000000" font-family="sans-serif" font-size="13" font-weight="bold" lengthAdjust="spacingAndGlyphs" textLength="18" x="713" y="824.5786">16</text><text fill="#000000" font-family="sans-serif" font-size="13" lengthAdjust="spacingAndGlyphs" textLength="61" x="735" y="817.0122">get latest</text><text fill="#000000" font-family="sans-serif" font-size="13" lengthAdjust="spacingAndGlyphs" textLength="114" x="735" y="832.145">private messages</text><polygon fill="#A80036" points="717,862.2109,707,866.2109,717,870.2109,713,866.2109" style="stroke: #A80036; stroke-width: 1.0;"/><line style="stroke: #A80036; stroke-width: 2.0; stroke-dasharray: 2.0,2.0;" x1="711" x2="960.5" y1="866.2109" y2="866.2109"/><text fill="#000000" font-family="sans-serif" font-size="13" font-weight="bold" lengthAdjust="spacingAndGlyphs" textLength="18" x="723" y="861.2778">17</text><text fill="#000000" font-family="sans-serif" font-size="13" lengthAdjust="spacingAndGlyphs" textLength="114" x="745" y="861.2778">private messages</text><rect fill="none" height="195.0625" style="stroke: #000000; stroke-width: 2.0;" width="471.5" x="438" y="881.3438"/><polygon fill="#EEEEEE" points="438,881.3438,515,881.3438,515,888.3438,505,898.3438,438,898.3438,438,881.3438" style="stroke: #000000; stroke-width: 2.0;"/><text fill="#000000" font-family="sans-serif" font-size="13" font-weight="bold" lengthAdjust="spacingAndGlyphs" textLength="32" x="453" y="894.4106">loop</text><text fill="#000000" font-family="sans-serif" font-size="11" font-weight="bold" lengthAdjust="spacingAndGlyphs" textLength="58" x="530" y="893.5542">[for each</text><text fill="#000000" font-family="sans-serif" font-size="11" font-weight="bold" lengthAdjust="spacingAndGlyphs" textLength="79" x="592" y="893.5542">unanswered</text><text fill="#000000" font-family="sans-serif" font-size="11" font-weight="bold" lengthAdjust="spacingAndGlyphs" textLength="135" x="675" y="893.5542">mention or message]</text><line style="stroke: #A80036; stroke-width: 2.0;" x1="501" x2="511" y1="949.4766" y2="945.4766"/><line style="stroke: #A80036; stroke-width: 2.0;" x1="501" x2="511" y1="949.4766" y2="953.4766"/><line style="stroke: #A80036; stroke-width: 2.0;" x1="501" x2="695" y1="949.4766" y2="949.4766"/><text fill="#000000" font-family="sans-serif" font-size="13" font-weight="bold" lengthAdjust="spacingAndGlyphs" textLength="18" x="518" y="929.6763">18</text><text fill="#000000" font-family="sans-serif" font-size="13" lengthAdjust="spacingAndGlyphs" textLength="72" x="540" y="914.5435">update last</text><text fill="#000000" font-family="sans-serif" font-size="13" lengthAdjust="spacingAndGlyphs" textLength="99" x="540" y="929.6763">communication</text><text fill="#000000" font-family="sans-serif" font-size="13" lengthAdjust="spacingAndGlyphs" textLength="61" x="540" y="944.8091">for user X</text><line style="stroke: #A80036; stroke-width: 2.0;" x1="849" x2="839" y1="1038.875" y2="1034.875"/><line style="stroke: #A80036; stroke-width: 2.0;" x1="849" x2="839" y1="1038.875" y2="1042.875"/><line style="stroke: #A80036; stroke-width: 2.0;" x1="706" x2="850" y1="1038.875" y2="1038.875"/><text fill="#000000" font-family="sans-serif" font-size="13" font-weight="bold" lengthAdjust="spacingAndGlyphs" textLength="18" x="713" y="1019.0747">19</text><text fill="#000000" font-family="sans-serif" font-size="13" lengthAdjust="spacingAndGlyphs" textLength="92" x="735" y="1003.9419">send to user X</text><text fill="#000000" font-family="sans-serif" font-size="13" lengthAdjust="spacingAndGlyphs" textLength="56" x="735" y="1019.0747">a private</text><text fill="#000000" font-family="sans-serif" font-size="13" lengthAdjust="spacingAndGlyphs" textLength="104" x="735" y="1034.2075">or flow message</text><polygon fill="#A80036" points="717,1064.2734,707,1068.2734,717,1072.2734,713,1068.2734" style="stroke: #A80036; stroke-width: 1.0;"/><line style="stroke: #A80036; stroke-width: 2.0; stroke-dasharray: 2.0,2.0;" x1="711" x2="855" y1="1068.2734" y2="1068.2734"/><text fill="#000000" font-family="sans-serif" font-size="13" font-weight="bold" lengthAdjust="spacingAndGlyphs" textLength="18" x="723" y="1063.3403">20</text><text fill="#000000" font-family="sans-serif" font-size="13" lengthAdjust="spacingAndGlyphs" textLength="0" x="749" y="1063.3403"/></g></svg>